Hebrik-BoldItalic.ufo
<glyph name="threequarters" format="1">
  <advance width="826"/>
  <unicode hex="00BE"/>
  <outline>
    <contour>
      <point x="809" y="669" type="line" smooth="yes"/>
      <point x="822" y="682"/>
      <point x="815" y="700"/>
      <point x="795" y="700" type="curve" smooth="yes"/>
      <point x="721" y="700" type="line" smooth="yes"/>
      <point x="702" y="700"/>
      <point x="693" y="693"/>
      <point x="681" y="681" type="curve" smooth="yes"/>
      <point x="49" y="31" type="line" smooth="yes"/>
      <point x="36" y="18"/>
      <point x="43" y="0"/>
      <point x="63" y="0" type="curve" smooth="yes"/>
      <point x="137" y="0" type="line" smooth="yes"/>
      <point x="156" y="0"/>
      <point x="165" y="7"/>
      <point x="177" y="19" type="curve" smooth="yes"/>
    </contour>
    <contour>
      <point x="612" y="331" type="curve"/>
      <point x="441" y="158" type="line" smooth="yes"/>
      <point x="426" y="142"/>
      <point x="423" y="131"/>
      <point x="423" y="128" type="curve"/>
      <point x="412" y="78" type="line"/>
      <point x="410" y="65"/>
      <point x="416" y="56"/>
      <point x="429" y="56" type="curve" smooth="yes"/>
      <point x="597" y="56" type="line"/>
      <point x="590" y="21" type="line" smooth="yes"/>
      <point x="587" y="8"/>
      <point x="594" y="-1"/>
      <point x="607" y="-1" type="curve" smooth="yes"/>
      <point x="679" y="-1" type="line" smooth="yes"/>
      <point x="692" y="-1"/>
      <point x="703" y="8"/>
      <point x="706" y="21" type="curve" smooth="yes"/>
      <point x="713" y="56" type="line"/>
      <point x="748" y="56" type="line" smooth="yes"/>
      <point x="761" y="56"/>
      <point x="772" y="65"/>
      <point x="775" y="78" type="curve" smooth="yes"/>
      <point x="786" y="129" type="line" smooth="yes"/>
      <point x="789" y="142"/>
      <point x="782" y="151"/>
      <point x="769" y="151" type="curve" smooth="yes"/>
      <point x="734" y="151" type="line"/>
      <point x="771" y="327" type="line" smooth="yes"/>
      <point x="774" y="340"/>
      <point x="767" y="349"/>
      <point x="754" y="349" type="curve" smooth="yes"/>
      <point x="646" y="349" type="line" smooth="yes"/>
      <point x="637" y="349"/>
      <point x="625" y="345"/>
    </contour>
    <contour>
      <point x="637" y="231" type="line"/>
      <point x="620" y="151" type="line"/>
      <point x="558" y="151" type="line"/>
    </contour>
    <contour>
      <point x="392" y="678" type="line" smooth="yes"/>
      <point x="395" y="691"/>
      <point x="388" y="700"/>
      <point x="375" y="700" type="curve" smooth="yes"/>
      <point x="150" y="700" type="line" smooth="yes"/>
      <point x="137" y="700"/>
      <point x="126" y="691"/>
      <point x="123" y="678" type="curve" smooth="yes"/>
      <point x="112" y="627" type="line" smooth="yes"/>
      <point x="109" y="614"/>
      <point x="117" y="605"/>
      <point x="130" y="605" type="curve" smooth="yes"/>
      <point x="232" y="605" type="line"/>
      <point x="168" y="557" type="line"/>
      <point x="160" y="550"/>
      <point x="155" y="544"/>
      <point x="153" y="535" type="curve" smooth="yes"/>
      <point x="148" y="512" type="line" smooth="yes"/>
      <point x="145" y="499"/>
      <point x="152" y="490"/>
      <point x="165" y="490" type="curve" smooth="yes"/>
      <point x="220" y="490" type="line" smooth="yes"/>
      <point x="238" y="490"/>
      <point x="253" y="483"/>
      <point x="249" y="465" type="curve" smooth="yes"/>
      <point x="244" y="443"/>
      <point x="227" y="440"/>
      <point x="209" y="440" type="curve" smooth="yes"/>
      <point x="179" y="440"/>
      <point x="182" y="458"/>
      <point x="157" y="458" type="curve" smooth="yes"/>
      <point x="72" y="458" type="line" smooth="yes"/>
      <point x="66" y="458"/>
      <point x="53" y="452"/>
      <point x="51" y="439" type="curve" smooth="yes"/>
      <point x="46" y="399"/>
      <point x="111" y="345"/>
      <point x="199" y="345" type="curve" smooth="yes"/>
      <point x="295" y="345"/>
      <point x="346" y="392"/>
      <point x="364" y="460" type="curve" smooth="yes"/>
      <point x="376" y="506"/>
      <point x="354" y="542"/>
      <point x="310" y="564" type="curve"/>
      <point x="363" y="607" type="line" smooth="yes"/>
      <point x="375" y="617"/>
      <point x="380" y="621"/>
      <point x="383" y="634" type="curve" smooth="yes"/>
    </contour>
  </outline>
</glyph>
<glyph name="dageshhebrew" format="1">
  <advance width="0"/>
  <unicode hex="05BC"/>
  <outline>
    <contour>
      <point x="84" y="272" type="line" smooth="yes"/>
      <point x="97" y="272"/>
      <point x="108" y="281"/>
      <point x="111" y="294" type="curve" smooth="yes"/>
      <point x="121" y="343" type="line" smooth="yes"/>
      <point x="124" y="356"/>
      <point x="117" y="365"/>
      <point x="104" y="365" type="curve" smooth="yes"/>
      <point x="54" y="365" type="line" smooth="yes"/>
      <point x="41" y="365"/>
      <point x="30" y="356"/>
      <point x="27" y="343" type="curve" smooth="yes"/>
      <point x="17" y="294" type="line" smooth="yes"/>
      <point x="14" y="281"/>
      <point x="21" y="272"/>
      <point x="34" y="272" type="curve" smooth="yes"/>
    </contour>
    <contour>
      <point x="62" y="287" type="move" name="_center"/>
    </contour>
  </outline>
</glyph>
<glyph name="sindothebrew" format="1">
  <advance width="0"/>
  <unicode hex="05C2"/>
  <outline>
    <contour>
      <point x="172" y="506" type="line" smooth="yes"/>
      <point x="185" y="506"/>
      <point x="196" y="515"/>
      <point x="198" y="528" type="curve" smooth="yes"/>
      <point x="209" y="578" type="line" smooth="yes"/>
      <point x="212" y="591"/>
      <point x="205" y="600"/>
      <point x="192" y="600" type="curve" smooth="yes"/>
      <point x="142" y="600" type="line" smooth="yes"/>
      <point x="129" y="600"/>
      <point x="118" y="591"/>
      <point x="115" y="578" type="curve" smooth="yes"/>
      <point x="104" y="528" type="line" smooth="yes"/>
      <point x="102" y="515"/>
      <point x="109" y="506"/>
      <point x="122" y="506" type="curve" smooth="yes"/>
    </contour>
    <contour>
      <point x="18" y="415" type="move" name="_topleft"/>
    </contour>
  </outline>
</glyph>
<glyph name="alefhebrew" format="1">
  <advance width="639"/>
  <unicode hex="05D0"/>
  <outline>
    <contour>
      <point x="522" y="0" type="line" smooth="yes"/>
      <point x="534" y="0"/>
      <point x="546" y="10"/>
      <point x="548" y="21" type="curve" smooth="yes"/>
      <point x="549" y="24"/>
      <point x="550" y="29"/>
      <point x="547" y="35" type="curve" smooth="yes"/>
      <point x="292" y="549" type="line" smooth="yes"/>
      <point x="289" y="556"/>
      <point x="282" y="571"/>
      <point x="260" y="571" type="curve" smooth="yes"/>
      <point x="143" y="571" type="line" smooth="yes"/>
      <point x="131" y="571"/>
      <point x="119" y="561"/>
      <point x="117" y="550" type="curve" smooth="yes"/>
      <point x="116" y="545"/>
      <point x="116" y="541"/>
      <point x="119" y="536" type="curve" smooth="yes"/>
      <point x="368" y="20" type="line" smooth="yes"/>
      <point x="372" y="15"/>
      <point x="378" y="0"/>
      <point x="399" y="0" type="curve" smooth="yes"/>
    </contour>
    <contour>
      <point x="120" y="0" type="line" smooth="yes"/>
      <point x="134" y="0"/>
      <point x="148" y="11"/>
      <point x="151" y="27" type="curve" smooth="yes"/>
      <point x="178" y="152" type="line" smooth="yes"/>
      <point x="186" y="189"/>
      <point x="204" y="241"/>
      <point x="260" y="276" type="curve"/>
      <point x="197" y="404" type="line"/>
      <point x="86" y="337"/>
      <point x="52" y="263"/>
      <point x="28" y="151" type="curve" smooth="yes"/>
      <point x="2" y="27" type="line" smooth="yes"/>
      <point x="-1" y="12"/>
      <point x="7" y="0"/>
      <point x="22" y="0" type="curve" smooth="yes"/>
    </contour>
    <contour>
      <point x="569" y="253"/>
      <point x="606" y="337"/>
      <point x="624" y="418" type="curve" smooth="yes"/>
      <point x="650" y="544" type="line" smooth="yes"/>
      <point x="653" y="559"/>
      <point x="645" y="571"/>
      <point x="630" y="571" type="curve" smooth="yes"/>
      <point x="525" y="571" type="line" smooth="yes"/>
      <point x="511" y="571"/>
      <point x="498" y="560"/>
      <point x="495" y="544" type="curve" smooth="yes"/>
      <point x="469" y="422" type="line" smooth="yes"/>
      <point x="461" y="385"/>
      <point x="446" y="346"/>
      <point x="379" y="316" type="curve"/>
      <point x="443" y="189" type="line"/>
    </contour>
    <contour>
      <point x="237" y="63" type="move" name="center"/>
    </contour>
    <contour>
      <point x="369" y="520" type="move" name="top"/>
    </contour>
    <contour>
      <point x="-26" y="0" type="move" name="bottomleft"/>
    </contour>
    <contour>
      <point x="85" y="520" type="move" name="topleft"/>
    </contour>
    <contour>
      <point x="258" y="0" type="move" name="bottom"/>
    </contour>
  </outline>
</glyph>
<glyph name="bethebrew" format="1">
  <advance width="577"/>
  <unicode hex="05D1"/>
  <outline>
    <contour>
      <point x="476" y="0" type="line" smooth="yes"/>
      <point x="491" y="0"/>
      <point x="504" y="11"/>
      <point x="507" y="25" type="curve" smooth="yes"/>
      <point x="525" y="111" type="line" smooth="yes"/>
      <point x="528" y="125"/>
      <point x="519" y="136"/>
      <point x="505" y="136" type="curve" smooth="yes"/>
      <point x="470" y="136" type="line"/>
      <point x="510" y="321" type="line" smooth="yes"/>
      <point x="548" y="502"/>
      <point x="459" y="571"/>
      <point x="279" y="571" type="curve" smooth="yes"/>
      <point x="147" y="571" type="line" smooth="yes"/>
      <point x="132" y="571"/>
      <point x="119" y="560"/>
      <point x="117" y="546" type="curve" smooth="yes"/>
      <point x="98" y="460" type="line" smooth="yes"/>
      <point x="95" y="445"/>
      <point x="104" y="434"/>
      <point x="118" y="434" type="curve" smooth="yes"/>
      <point x="245" y="434" type="line" smooth="yes"/>
      <point x="323" y="434"/>
      <point x="350" y="394"/>
      <point x="334" y="321" type="curve" smooth="yes"/>
      <point x="295" y="136" type="line"/>
      <point x="44" y="136" type="line" smooth="yes"/>
      <point x="30" y="136"/>
      <point x="17" y="125"/>
      <point x="14" y="111" type="curve" smooth="yes"/>
      <point x="-4" y="25" type="line" smooth="yes"/>
      <point x="-7" y="11"/>
      <point x="1" y="0"/>
      <point x="16" y="0" type="curve" smooth="yes"/>
    </contour>
    <contour>
      <point x="188" y="260" type="move" name="center"/>
    </contour>
    <contour>
      <point x="350" y="520" type="move" name="top"/>
    </contour>
    <contour>
      <point x="-30" y="0" type="move" name="bottomleft"/>
    </contour>
    <contour>
      <point x="81" y="520" type="move" name="topleft"/>
    </contour>
    <contour>
      <point x="239" y="0" type="move" name="bottom"/>
    </contour>
  </outline>
</glyph>
<glyph name="gimelhebrew" format="1">
  <advance width="486"/>
  <unicode hex="05D2"/>
  <outline>
    <contour>
      <point x="384" y="0" type="line" smooth="yes"/>
      <point x="399" y="0"/>
      <point x="415" y="11"/>
      <point x="415" y="25" type="curve" smooth="yes"/>
      <point x="420" y="330" type="line" smooth="yes"/>
      <point x="422" y="505"/>
      <point x="375" y="578"/>
      <point x="206" y="578" type="curve" smooth="yes"/>
      <point x="168" y="578" type="line" smooth="yes"/>
      <point x="153" y="578"/>
      <point x="140" y="567"/>
      <point x="138" y="552" type="curve" smooth="yes"/>
      <point x="118" y="460" type="line" smooth="yes"/>
      <point x="115" y="446"/>
      <point x="123" y="435"/>
      <point x="138" y="435" type="curve" smooth="yes"/>
      <point x="173" y="435" type="line" smooth="yes"/>
      <point x="233" y="435"/>
      <point x="243" y="400"/>
      <point x="243" y="325" type="curve" smooth="yes"/>
      <point x="240" y="25" type="line"/>
      <point x="238" y="11"/>
      <point x="245" y="0"/>
      <point x="259" y="0" type="curve" smooth="yes"/>
    </contour>
    <contour>
      <point x="247" y="88"/>
      <point x="316" y="165"/>
      <point x="347" y="290" type="curve"/>
      <point x="289" y="293" type="line"/>
      <point x="265" y="247"/>
      <point x="214" y="200"/>
      <point x="164" y="178" type="curve" smooth="yes"/>
      <point x="129" y="162"/>
      <point x="63" y="145"/>
      <point x="48" y="140" type="curve" smooth="yes"/>
      <point x="31" y="134"/>
      <point x="23" y="125"/>
      <point x="21" y="115" type="curve" smooth="yes"/>
      <point x="-2" y="7" type="line" smooth="yes"/>
      <point x="-4" y="-7"/>
      <point x="6" y="-10"/>
      <point x="19" y="-8" type="curve" smooth="yes"/>
      <point x="68" y="1"/>
      <point x="113" y="18"/>
      <point x="172" y="50" type="curve" smooth="yes"/>
    </contour>
    <contour>
      <point x="232" y="0" type="move" name="bottom"/>
    </contour>
    <contour>
      <point x="343" y="520" type="move" name="top"/>
    </contour>
    <contour>
      <point x="-28" y="0" type="move" name="bottomleft"/>
    </contour>
    <contour>
      <point x="83" y="520" type="move" name="topleft"/>
    </contour>
    <contour>
      <point x="143" y="260" type="move" name="center"/>
    </contour>
  </outline>
</glyph>
<glyph name="dalethebrew" format="1">
  <advance width="558"/>
  <unicode hex="05D3"/>
  <outline>
    <contour>
      <point x="351" y="0" type="line" smooth="yes"/>
      <point x="364" y="0"/>
      <point x="382" y="9"/>
      <point x="385" y="22" type="curve"/>
      <point x="446" y="313" type="line" smooth="yes"/>
      <point x="463" y="393"/>
      <point x="499" y="456"/>
      <point x="533" y="456" type="curve"/>
      <point x="367" y="456" type="line"/>
      <point x="326" y="456"/>
      <point x="299" y="410"/>
      <point x="281" y="324" type="curve" smooth="yes"/>
      <point x="217" y="22" type="line" smooth="yes"/>
      <point x="214" y="9"/>
      <point x="221" y="0"/>
      <point x="234" y="0" type="curve" smooth="yes"/>
    </contour>
    <contour>
      <point x="543" y="435" type="line" smooth="yes"/>
      <point x="559" y="435"/>
      <point x="571" y="447"/>
      <point x="574" y="460" type="curve" smooth="yes"/>
      <point x="593" y="546" type="line" smooth="yes"/>
      <point x="595" y="560"/>
      <point x="586" y="571"/>
      <point x="572" y="571" type="curve" smooth="yes"/>
      <point x="125" y="571" type="line" smooth="yes"/>
      <point x="111" y="571"/>
      <point x="98" y="560"/>
      <point x="95" y="546" type="curve" smooth="yes"/>
      <point x="77" y="460" type="line" smooth="yes"/>
      <point x="74" y="446"/>
      <point x="82" y="435"/>
      <point x="97" y="435" type="curve" smooth="yes"/>
    </contour>
    <contour>
      <point x="262" y="0" type="move" name="bottom"/>
    </contour>
    <contour>
      <point x="343" y="520" type="move" name="top"/>
    </contour>
    <contour>
      <point x="-14" y="0" type="move" name="bottomleft"/>
    </contour>
    <contour>
      <point x="97" y="520" type="move" name="topleft"/>
    </contour>
    <contour>
      <point x="159" y="260" type="move" name="center"/>
    </contour>
  </outline>
</glyph>
<glyph name="vavhebrew" format="1">
  <advance width="294"/>
  <unicode hex="05D5"/>
  <outline>
    <contour>
      <point x="160" y="0" type="line" smooth="yes"/>
      <point x="174" y="0"/>
      <point x="188" y="11"/>
      <point x="191" y="25" type="curve"/>
      <point x="301" y="546" type="line" smooth="yes"/>
      <point x="304" y="560"/>
      <point x="295" y="571"/>
      <point x="281" y="571" type="curve" smooth="yes"/>
      <point x="156" y="571" type="line" smooth="yes"/>
      <point x="141" y="571"/>
      <point x="128" y="560"/>
      <point x="126" y="546" type="curve" smooth="yes"/>
      <point x="15" y="25" type="line" smooth="yes"/>
      <point x="12" y="11"/>
      <point x="20" y="0"/>
      <point x="35" y="0" type="curve" smooth="yes"/>
    </contour>
    <contour>
      <point x="-15" y="260" type="move" name="center"/>
    </contour>
    <contour>
      <point x="209" y="520" type="move" name="top"/>
    </contour>
    <contour>
      <point x="-30" y="0" type="move" name="bottomleft"/>
    </contour>
    <contour>
      <point x="131" y="520" type="move" name="topleft"/>
    </contour>
    <contour>
      <point x="98" y="0" type="move" name="bottom"/>
    </contour>
  </outline>
</glyph>
<glyph name="zayinhebrew" format="1">
  <advance width="417"/>
  <unicode hex="05D6"/>
  <outline>
    <contour>
      <point x="206" y="0" type="line" smooth="yes"/>
      <point x="219" y="0"/>
      <point x="237" y="9"/>
      <point x="240" y="22" type="curve"/>
      <point x="301" y="313" type="line" smooth="yes"/>
      <point x="318" y="393"/>
      <point x="354" y="456"/>
      <point x="388" y="456" type="curve"/>
      <point x="222" y="456" type="line"/>
      <point x="181" y="456"/>
      <point x="154" y="410"/>
      <point x="136" y="324" type="curve" smooth="yes"/>
      <point x="72" y="22" type="line" smooth="yes"/>
      <point x="69" y="9"/>
      <point x="76" y="0"/>
      <point x="89" y="0" type="curve" smooth="yes"/>
    </contour>
    <contour>
      <point x="398" y="435" type="line" smooth="yes"/>
      <point x="414" y="435"/>
      <point x="426" y="447"/>
      <point x="429" y="460" type="curve" smooth="yes"/>
      <point x="447" y="546" type="line" smooth="yes"/>
      <point x="450" y="560"/>
      <point x="441" y="571"/>
      <point x="427" y="571" type="curve" smooth="yes"/>
      <point x="133" y="571" type="line" smooth="yes"/>
      <point x="119" y="571"/>
      <point x="106" y="560"/>
      <point x="103" y="546" type="curve" smooth="yes"/>
      <point x="85" y="460" type="line" smooth="yes"/>
      <point x="82" y="446"/>
      <point x="90" y="435"/>
      <point x="105" y="435" type="curve" smooth="yes"/>
    </contour>
    <contour>
      <point x="184" y="0" type="move" name="bottom"/>
    </contour>
    <contour>
      <point x="301" y="520" type="move" name="top"/>
    </contour>
    <contour>
      <point x="-6" y="0" type="move" name="bottomleft"/>
    </contour>
    <contour>
      <point x="105" y="520" type="move" name="topleft"/>
    </contour>
    <contour>
      <point x="49" y="260" type="move" name="center"/>
    </contour>
  </outline>
</glyph>
<glyph name="finalkafhebrew" format="1">
  <advance width="549"/>
  <unicode hex="05DA"/>
  <outline>
    <contour>
      <point x="259" y="-99" type="line" smooth="yes"/>
      <point x="256" y="-114"/>
      <point x="265" y="-124"/>
      <point x="280" y="-124" type="curve" smooth="yes"/>
      <point x="398" y="-124" type="line" smooth="yes"/>
      <point x="412" y="-124"/>
      <point x="425" y="-113"/>
      <point x="428" y="-99" type="curve" smooth="yes"/>
      <point x="519" y="327" type="line" smooth="yes"/>
      <point x="557" y="507"/>
      <point x="474" y="571"/>
      <point x="294" y="571" type="curve" smooth="yes"/>
      <point x="129" y="571" type="line"/>
      <point x="115" y="571"/>
      <point x="102" y="560"/>
      <point x="99" y="546" type="curve" smooth="yes"/>
      <point x="81" y="460" type="line" smooth="yes"/>
      <point x="78" y="446"/>
      <point x="86" y="435"/>
      <point x="101" y="435" type="curve" smooth="yes"/>
      <point x="259" y="435" type="line" smooth="yes"/>
      <point x="337" y="435"/>
      <point x="364" y="395"/>
      <point x="348" y="321" type="curve" smooth="yes"/>
    </contour>
    <contour>
      <point x="235" y="113" type="move" name="bottom"/>
    </contour>
    <contour>
      <point x="345" y="520" type="move" name="top"/>
    </contour>
    <contour>
      <point x="-10" y="0" type="move" name="bottomleft"/>
    </contour>
    <contour>
      <point x="101" y="520" type="move" name="topleft"/>
    </contour>
    <contour>
      <point x="208" y="260" type="move" name="center"/>
    </contour>
  </outline>
</glyph>
<glyph name="kafhebrew" format="1">
  <advance width="546"/>
  <unicode hex="05DB"/>
  <outline>
    <contour>
      <point x="179" y="0" type="line" smooth="yes"/>
      <point x="372" y="0"/>
      <point x="471" y="102"/>
      <point x="511" y="257" type="curve" smooth="yes"/>
      <point x="516" y="280"/>
      <point x="519" y="291"/>
      <point x="523" y="314" type="curve" smooth="yes"/>
      <point x="548" y="469"/>
      <point x="493" y="571"/>
      <point x="300" y="571" type="curve" smooth="yes"/>
      <point x="150" y="571" type="line" smooth="yes"/>
      <point x="135" y="571"/>
      <point x="122" y="560"/>
      <point x="120" y="546" type="curve" smooth="yes"/>
      <point x="100" y="454" type="line" smooth="yes"/>
      <point x="97" y="439"/>
      <point x="105" y="428"/>
      <point x="120" y="428" type="curve" smooth="yes"/>
      <point x="265" y="428" type="line" smooth="yes"/>
      <point x="343" y="428"/>
      <point x="373" y="388"/>
      <point x="360" y="315" type="curve" smooth="yes"/>
      <point x="357" y="291"/>
      <point x="354" y="280"/>
      <point x="348" y="256" type="curve" smooth="yes"/>
      <point x="329" y="183"/>
      <point x="282" y="143"/>
      <point x="204" y="143" type="curve" smooth="yes"/>
      <point x="59" y="143" type="line" smooth="yes"/>
      <point x="44" y="143"/>
      <point x="31" y="132"/>
      <point x="29" y="117" type="curve" smooth="yes"/>
      <point x="9" y="25" type="line" smooth="yes"/>
      <point x="6" y="11"/>
      <point x="14" y="0"/>
      <point x="29" y="0" type="curve" smooth="yes"/>
    </contour>
    <contour>
      <point x="206" y="260" type="move" name="center"/>
    </contour>
    <contour>
      <point x="326" y="520" type="move" name="top"/>
    </contour>
    <contour>
      <point x="-17" y="0" type="move" name="bottomleft"/>
    </contour>
    <contour>
      <point x="94" y="520" type="move" name="topleft"/>
    </contour>
    <contour>
      <point x="217" y="0" type="move" name="bottom"/>
    </contour>
  </outline>
</glyph>
<glyph name="lamedhebrew" format="1">
  <advance width="531"/>
  <unicode hex="05DC"/>
  <outline>
    <contour>
      <point x="184" y="-1" type="line" smooth="yes"/>
      <point x="328" y="37"/>
      <point x="477" y="139"/>
      <point x="515" y="320" type="curve" smooth="yes"/>
      <point x="550" y="482"/>
      <point x="503" y="571"/>
      <point x="325" y="571" type="curve" smooth="yes"/>
      <point x="267" y="571" type="line"/>
      <point x="254" y="571"/>
      <point x="240" y="560"/>
      <point x="237" y="547" type="curve"/>
      <point x="218" y="454" type="line"/>
      <point x="215" y="439"/>
      <point x="224" y="428"/>
      <point x="237" y="428" type="curve"/>
      <point x="260" y="428" type="line"/>
      <point x="341" y="428"/>
      <point x="358" y="397"/>
      <point x="340" y="315" type="curve" smooth="yes"/>
      <point x="320" y="220"/>
      <point x="266" y="181"/>
      <point x="208" y="160" type="curve" smooth="yes"/>
      <point x="174" y="147" type="line" smooth="yes"/>
      <point x="158" y="141"/>
      <point x="144" y="128"/>
      <point x="142" y="115" type="curve" smooth="yes"/>
      <point x="120" y="14" type="line" smooth="yes"/>
      <point x="117" y="-1"/>
      <point x="127" y="-16"/>
      <point x="141" y="-13" type="curve" smooth="yes"/>
    </contour>
    <contour>
      <point x="305" y="571" type="line"/>
      <point x="264" y="571" type="line"/>
      <point x="288" y="685" type="line" smooth="yes"/>
      <point x="291" y="699"/>
      <point x="283" y="710"/>
      <point x="268" y="710" type="curve" smooth="yes"/>
      <point x="161" y="710" type="line" smooth="yes"/>
      <point x="146" y="710"/>
      <point x="133" y="699"/>
      <point x="130" y="685" type="curve" smooth="yes"/>
      <point x="81" y="454" type="line" smooth="yes"/>
      <point x="78" y="439"/>
      <point x="86" y="429"/>
      <point x="101" y="429" type="curve" smooth="yes"/>
      <point x="274" y="428" type="line"/>
    </contour>
    <contour>
      <point x="181" y="260" type="move" name="center"/>
    </contour>
    <contour>
      <point x="322" y="520" type="move" name="top"/>
    </contour>
    <contour>
      <point x="-12" y="0" type="move" name="bottomleft"/>
    </contour>
    <contour>
      <point x="99" y="520" type="move" name="topleft"/>
    </contour>
    <contour>
      <point x="228" y="0" type="move" name="bottom"/>
    </contour>
  </outline>
</glyph>
<glyph name="nunhebrew" format="1">
  <advance width="444"/>
  <unicode hex="05E0"/>
  <outline>
    <contour>
      <point x="312" y="0" type="line" smooth="yes"/>
      <point x="327" y="0"/>
      <point x="340" y="9"/>
      <point x="343" y="24" type="curve" smooth="yes"/>
      <point x="366" y="136" type="line"/>
      <point x="41" y="136" type="line" smooth="yes"/>
      <point x="27" y="136"/>
      <point x="14" y="125"/>
      <point x="11" y="111" type="curve" smooth="yes"/>
      <point x="-7" y="25" type="line" smooth="yes"/>
      <point x="-10" y="11"/>
      <point x="-2" y="0"/>
      <point x="13" y="0" type="curve" smooth="yes"/>
    </contour>
    <contour>
      <point x="334" y="0" type="line" smooth="yes"/>
      <point x="348" y="0"/>
      <point x="363" y="11"/>
      <point x="365" y="25" type="curve" smooth="yes"/>
      <point x="416" y="330" type="line" smooth="yes"/>
      <point x="445" y="501"/>
      <point x="391" y="578"/>
      <point x="214" y="578" type="curve" smooth="yes"/>
      <point x="159" y="578" type="line" smooth="yes"/>
      <point x="145" y="578"/>
      <point x="132" y="567"/>
      <point x="129" y="552" type="curve" smooth="yes"/>
      <point x="111" y="468" type="line" smooth="yes"/>
      <point x="108" y="454"/>
      <point x="117" y="443"/>
      <point x="131" y="443" type="curve" smooth="yes"/>
      <point x="182" y="443" type="line" smooth="yes"/>
      <point x="246" y="443"/>
      <point x="252" y="405"/>
      <point x="241" y="333" type="curve" smooth="yes"/>
      <point x="189" y="25" type="line"/>
      <point x="187" y="11"/>
      <point x="195" y="0"/>
      <point x="209" y="0" type="curve" smooth="yes"/>
    </contour>
    <contour>
      <point x="138" y="260" type="move" name="center"/>
    </contour>
    <contour>
      <point x="279" y="520" type="move" name="top"/>
    </contour>
    <contour>
      <point x="-30" y="0" type="move" name="bottomleft"/>
    </contour>
    <contour>
      <point x="81" y="520" type="move" name="topleft"/>
    </contour>
    <contour>
      <point x="168" y="0" type="move" name="bottom"/>
    </contour>
  </outline>
</glyph>
<glyph name="ayinhebrew" format="1">
  <advance width="635"/>
  <unicode hex="05E2"/>
  <outline>
    <contour>
      <point x="268" y="-2" type="line" smooth="yes"/>
      <point x="441" y="27"/>
      <point x="557" y="117"/>
      <point x="585" y="250" type="curve" smooth="yes"/>
      <point x="648" y="546" type="line" smooth="yes"/>
      <point x="651" y="560"/>
      <point x="642" y="571"/>
      <point x="628" y="571" type="curve" smooth="yes"/>
      <point x="509" y="571" type="line" smooth="yes"/>
      <point x="495" y="571"/>
      <point x="482" y="561"/>
      <point x="479" y="546" type="curve" smooth="yes"/>
      <point x="427" y="300" type="line" smooth="yes"/>
      <point x="408" y="211"/>
      <point x="373" y="162"/>
      <point x="257" y="134" type="curve" smooth="yes"/>
      <point x="25" y="81" type="line" smooth="yes"/>
      <point x="11" y="78"/>
      <point x="0" y="68"/>
      <point x="-3" y="54" type="curve" smooth="yes"/>
      <point x="-22" y="-33" type="line" smooth="yes"/>
      <point x="-25" y="-48"/>
      <point x="-15" y="-59"/>
      <point x="1" y="-56" type="curve" smooth="yes"/>
    </contour>
    <contour>
      <point x="325" y="47" type="line"/>
      <point x="288" y="556" type="line" smooth="yes"/>
      <point x="288" y="564"/>
      <point x="281" y="571"/>
      <point x="268" y="571" type="curve" smooth="yes"/>
      <point x="137" y="571" type="line" smooth="yes"/>
      <point x="126" y="571"/>
      <point x="115" y="562"/>
      <point x="113" y="551" type="curve" smooth="yes"/>
      <point x="112" y="546"/>
      <point x="113" y="541"/>
      <point x="114" y="531" type="curve" smooth="yes"/>
      <point x="147" y="24" type="line"/>
    </contour>
    <contour>
      <point x="348" y="260" type="move" name="center"/>
    </contour>
    <contour>
      <point x="404" y="520" type="move" name="top"/>
    </contour>
    <contour>
      <point x="-30" y="0" type="move" name="bottomleft"/>
    </contour>
    <contour>
      <point x="81" y="520" type="move" name="topleft"/>
    </contour>
    <contour>
      <point x="287" y="0" type="move" name="bottom"/>
    </contour>
  </outline>
</glyph>
<glyph name="finalpehebrew" format="1">
  <advance width="568"/>
  <unicode hex="05E3"/>
  <outline>
    <contour>
      <point x="428" y="-124" type="line" smooth="yes"/>
      <point x="442" y="-124"/>
      <point x="455" y="-113"/>
      <point x="458" y="-99" type="curve"/>
      <point x="545" y="314" type="line"/>
      <point x="572" y="469"/>
      <point x="516" y="571"/>
      <point x="338" y="571" type="curve" smooth="yes"/>
      <point x="204" y="571" type="line" smooth="yes"/>
      <point x="172" y="571"/>
      <point x="141" y="555"/>
      <point x="122" y="508" type="curve" smooth="yes"/>
      <point x="99" y="454" type="line" smooth="yes"/>
      <point x="94" y="439"/>
      <point x="104" y="428"/>
      <point x="119" y="428" type="curve" smooth="yes"/>
      <point x="291" y="430" type="line" smooth="yes"/>
      <point x="368" y="430"/>
      <point x="397" y="388"/>
      <point x="383" y="315" type="curve"/>
      <point x="295" y="-99" type="line"/>
      <point x="292" y="-113"/>
      <point x="301" y="-124"/>
      <point x="315" y="-124" type="curve" smooth="yes"/>
    </contour>
    <contour>
      <point x="122" y="520"/>
      <point x="80" y="460"/>
      <point x="61" y="372" type="curve" smooth="yes"/>
      <point x="44" y="290"/>
      <point x="69" y="238"/>
      <point x="100" y="197" type="curve" smooth="yes"/>
      <point x="114" y="177" type="line" smooth="yes"/>
      <point x="120" y="169"/>
      <point x="133" y="169"/>
      <point x="144" y="176" type="curve" smooth="yes"/>
      <point x="233" y="217" type="line" smooth="yes"/>
      <point x="244" y="224"/>
      <point x="247" y="239"/>
      <point x="241" y="248" type="curve" smooth="yes"/>
      <point x="227" y="269" type="line" smooth="yes"/>
      <point x="215" y="287"/>
      <point x="194" y="317"/>
      <point x="206" y="372" type="curve" smooth="yes"/>
      <point x="220" y="436"/>
      <point x="248" y="479"/>
      <point x="277" y="511" type="curve" smooth="yes"/>
      <point x="286" y="521"/>
      <point x="282" y="535"/>
      <point x="272" y="539" type="curve"/>
      <point x="218" y="569" type="line"/>
      <point x="206" y="574"/>
      <point x="163" y="568"/>
      <point x="152" y="556" type="curve" smooth="yes"/>
    </contour>
    <contour>
      <point x="288" y="304" type="move" name="center"/>
    </contour>
    <contour>
      <point x="345" y="520" type="move" name="top"/>
    </contour>
    <contour>
      <point x="-30" y="0" type="move" name="bottomleft"/>
    </contour>
    <contour>
      <point x="81" y="520" type="move" name="topleft"/>
    </contour>
    <contour>
      <point x="234" y="0" type="move" name="bottom"/>
    </contour>
  </outline>
</glyph>
<glyph name="pehebrew" format="1">
  <advance width="581"/>
  <unicode hex="05E4"/>
  <outline>
    <contour>
      <point x="117" y="428"/>
      <point x="107" y="441"/>
      <point x="112" y="454" type="curve" smooth="yes"/>
      <point x="149" y="546" type="line" smooth="yes"/>
      <point x="153" y="560"/>
      <point x="164" y="571"/>
      <point x="179" y="571" type="curve" smooth="yes"/>
      <point x="346" y="571" type="line" smooth="yes"/>
      <point x="529" y="571"/>
      <point x="584" y="469"/>
      <point x="558" y="314" type="curve" smooth="yes"/>
      <point x="555" y="294"/>
      <point x="551" y="277"/>
      <point x="546" y="257" type="curve" smooth="yes"/>
      <point x="506" y="102"/>
      <point x="408" y="0"/>
      <point x="225" y="0" type="curve" smooth="yes"/>
      <point x="32" y="0" type="line" smooth="yes"/>
      <point x="17" y="0"/>
      <point x="9" y="11"/>
      <point x="12" y="25" type="curve" smooth="yes"/>
      <point x="32" y="117" type="line" smooth="yes"/>
      <point x="34" y="132"/>
      <point x="47" y="143"/>
      <point x="62" y="143" type="curve" smooth="yes"/>
      <point x="250" y="143" type="line" smooth="yes"/>
      <point x="317" y="143"/>
      <point x="374" y="183"/>
      <point x="393" y="256" type="curve" smooth="yes"/>
      <point x="399" y="276"/>
      <point x="403" y="295"/>
      <point x="406" y="315" type="curve" smooth="yes"/>
      <point x="419" y="388"/>
      <point x="378" y="428"/>
      <point x="311" y="428" type="curve" smooth="yes"/>
      <point x="131" y="428" type="line" smooth="yes"/>
    </contour>
    <contour>
      <point x="163" y="569"/>
      <point x="172" y="574"/>
      <point x="184" y="569" type="curve"/>
      <point x="271" y="539" type="line"/>
      <point x="281" y="535"/>
      <point x="285" y="521"/>
      <point x="276" y="511" type="curve" smooth="yes"/>
      <point x="247" y="479"/>
      <point x="211" y="434"/>
      <point x="203" y="397" type="curve" smooth="yes"/>
      <point x="197" y="366"/>
      <point x="197" y="347"/>
      <point x="215" y="338" type="curve" smooth="yes"/>
      <point x="230" y="331" type="line" smooth="yes"/>
      <point x="240" y="326"/>
      <point x="243" y="314"/>
      <point x="240" y="300" type="curve" smooth="yes"/>
      <point x="229" y="242" type="line" smooth="yes"/>
      <point x="226" y="226"/>
      <point x="204" y="216"/>
      <point x="188" y="219" type="curve" smooth="yes"/>
      <point x="149" y="223" type="line" smooth="yes"/>
      <point x="85" y="233"/>
      <point x="46" y="307"/>
      <point x="66" y="398" type="curve" smooth="yes"/>
      <point x="79" y="464"/>
      <point x="122" y="522"/>
      <point x="152" y="557" type="curve" smooth="yes"/>
    </contour>
    <contour>
      <point x="308" y="260" type="move" name="center"/>
    </contour>
    <contour>
      <point x="335" y="520" type="move" name="top"/>
    </contour>
    <contour>
      <point x="-28" y="0" type="move" name="bottomleft"/>
    </contour>
    <contour>
      <point x="83" y="520" type="move" name="topleft"/>
    </contour>
    <contour>
      <point x="224" y="0" type="move" name="bottom"/>
    </contour>
  </outline>
</glyph>
<glyph name="finaltsadihebrew" format="1">
  <advance width="552"/>
  <unicode hex="05E5"/>
  <outline>
    <contour>
      <point x="343" y="-124" type="line" smooth="yes"/>
      <point x="354" y="-124"/>
      <point x="366" y="-115"/>
      <point x="368" y="-103" type="curve" smooth="yes"/>
      <point x="369" y="-100"/>
      <point x="368" y="-96"/>
      <point x="367" y="-89" type="curve" smooth="yes"/>
      <point x="322" y="169" type="line"/>
      <point x="432" y="207"/>
      <point x="534" y="291"/>
      <point x="564" y="430" type="curve" smooth="yes"/>
      <point x="588" y="544" type="line" smooth="yes"/>
      <point x="590" y="559"/>
      <point x="582" y="571"/>
      <point x="568" y="571" type="curve" smooth="yes"/>
      <point x="463" y="571" type="line" smooth="yes"/>
      <point x="448" y="571"/>
      <point x="435" y="560"/>
      <point x="432" y="544" type="curve" smooth="yes"/>
      <point x="410" y="438" type="line" smooth="yes"/>
      <point x="394" y="368"/>
      <point x="354" y="327"/>
      <point x="298" y="312" type="curve"/>
      <point x="257" y="547" type="line"/>
      <point x="255" y="561"/>
      <point x="248" y="571"/>
      <point x="231" y="571" type="curve" smooth="yes"/>
      <point x="110" y="571" type="line" smooth="yes"/>
      <point x="98" y="571"/>
      <point x="86" y="561"/>
      <point x="84" y="550" type="curve" smooth="yes"/>
      <point x="83" y="547"/>
      <point x="83" y="544"/>
      <point x="85" y="536" type="curve" smooth="yes"/>
      <point x="196" y="-103" type="line" smooth="yes"/>
      <point x="198" y="-114"/>
      <point x="205" y="-124"/>
      <point x="223" y="-124" type="curve" smooth="yes"/>
    </contour>
    <contour>
      <point x="226" y="0" type="move" name="bottom"/>
    </contour>
    <contour>
      <point x="337" y="520" type="move" name="top"/>
    </contour>
    <contour>
      <point x="-30" y="0" type="move" name="bottomleft"/>
    </contour>
    <contour>
      <point x="81" y="520" type="move" name="topleft"/>
    </contour>
    <contour>
      <point x="281" y="260" type="move" name="center"/>
    </contour>
  </outline>
</glyph>
<glyph name="tsadihebrew" format="1">
  <advance width="590"/>
  <unicode hex="05E6"/>
  <outline>
    <contour>
      <point x="440" y="0" type="line" smooth="yes"/>
      <point x="455" y="0"/>
      <point x="468" y="11"/>
      <point x="471" y="25" type="curve" smooth="yes"/>
      <point x="488" y="106" type="line" smooth="yes"/>
      <point x="492" y="122"/>
      <point x="486" y="131"/>
      <point x="481" y="139" type="curve" smooth="yes"/>
      <point x="268" y="553" type="line" smooth="yes"/>
      <point x="265" y="559"/>
      <point x="259" y="571"/>
      <point x="239" y="571" type="curve" smooth="yes"/>
      <point x="115" y="571" type="line" smooth="yes"/>
      <point x="104" y="571"/>
      <point x="92" y="563"/>
      <point x="90" y="551" type="curve" smooth="yes"/>
      <point x="89" y="545"/>
      <point x="90" y="540"/>
      <point x="92" y="535" type="curve" smooth="yes"/>
      <point x="298" y="139" type="line"/>
      <point x="64" y="139" type="line" smooth="yes"/>
      <point x="50" y="139"/>
      <point x="37" y="128"/>
      <point x="34" y="114" type="curve" smooth="yes"/>
      <point x="15" y="25" type="line" smooth="yes"/>
      <point x="12" y="11"/>
      <point x="20" y="0"/>
      <point x="35" y="0" type="curve" smooth="yes"/>
    </contour>
    <contour>
      <point x="507" y="285"/>
      <point x="569" y="365"/>
      <point x="589" y="458" type="curve" smooth="yes"/>
      <point x="607" y="544" type="line" smooth="yes"/>
      <point x="610" y="559"/>
      <point x="602" y="571"/>
      <point x="587" y="571" type="curve" smooth="yes"/>
      <point x="482" y="571" type="line" smooth="yes"/>
      <point x="468" y="571"/>
      <point x="455" y="560"/>
      <point x="452" y="544" type="curve" smooth="yes"/>
      <point x="440" y="488" type="line" smooth="yes"/>
      <point x="427" y="428"/>
      <point x="401" y="379"/>
      <point x="350" y="350" type="curve"/>
      <point x="410" y="237" type="line"/>
    </contour>
    <contour>
      <point x="239" y="0" type="move" name="bottom"/>
    </contour>
    <contour>
      <point x="350" y="520" type="move" name="top"/>
    </contour>
    <contour>
      <point x="-30" y="0" type="move" name="bottomleft"/>
    </contour>
    <contour>
      <point x="81" y="520" type="move" name="topleft"/>
    </contour>
    <contour>
      <point x="127" y="225" type="move" name="center"/>
    </contour>
  </outline>
</glyph>
<glyph name="qofhebrew" format="1">
  <advance width="667"/>
  <unicode hex="05E7"/>
  <outline>
    <contour>
      <point x="108" y="-191" type="line" smooth="yes"/>
      <point x="122" y="-191"/>
      <point x="136" y="-180"/>
      <point x="139" y="-166" type="curve"/>
      <point x="243" y="324" type="line" smooth="yes"/>
      <point x="246" y="338"/>
      <point x="237" y="349"/>
      <point x="223" y="349" type="curve" smooth="yes"/>
      <point x="109" y="349" type="line" smooth="yes"/>
      <point x="94" y="349"/>
      <point x="81" y="338"/>
      <point x="78" y="324" type="curve" smooth="yes"/>
      <point x="-26" y="-166" type="line" smooth="yes"/>
      <point x="-29" y="-180"/>
      <point x="-21" y="-191"/>
      <point x="-6" y="-191" type="curve" smooth="yes"/>
    </contour>
    <contour>
      <point x="317" y="-1" type="line" smooth="yes"/>
      <point x="460" y="37"/>
      <point x="610" y="139"/>
      <point x="648" y="320" type="curve" smooth="yes"/>
      <point x="682" y="482"/>
      <point x="636" y="571"/>
      <point x="457" y="571" type="curve" smooth="yes"/>
      <point x="156" y="571" type="line"/>
      <point x="143" y="571"/>
      <point x="128" y="560"/>
      <point x="126" y="547" type="curve"/>
      <point x="106" y="454" type="line"/>
      <point x="103" y="439"/>
      <point x="112" y="428"/>
      <point x="126" y="428" type="curve"/>
      <point x="392" y="428" type="line"/>
      <point x="473" y="428"/>
      <point x="490" y="397"/>
      <point x="473" y="315" type="curve" smooth="yes"/>
      <point x="452" y="220"/>
      <point x="399" y="181"/>
      <point x="340" y="160" type="curve" smooth="yes"/>
      <point x="306" y="147" type="line" smooth="yes"/>
      <point x="291" y="141"/>
      <point x="277" y="128"/>
      <point x="274" y="115" type="curve" smooth="yes"/>
      <point x="253" y="14" type="line" smooth="yes"/>
      <point x="249" y="-1"/>
      <point x="259" y="-16"/>
      <point x="274" y="-13" type="curve" smooth="yes"/>
    </contour>
    <contour>
      <point x="390" y="0" type="move" name="bottom"/>
    </contour>
    <contour>
      <point x="385" y="520" type="move" name="top"/>
    </contour>
    <contour>
      <point x="-30" y="0" type="move" name="bottomleft"/>
    </contour>
    <contour>
      <point x="81" y="520" type="move" name="topleft"/>
    </contour>
    <contour>
      <point x="329" y="260" type="move" name="center"/>
    </contour>
  </outline>
</glyph>
<glyph name="reshhebrew" format="1">
  <advance width="553"/>
  <unicode hex="05E8"/>
  <outline>
    <contour>
      <point x="424" y="0" type="line" smooth="yes"/>
      <point x="438" y="0"/>
      <point x="452" y="11"/>
      <point x="455" y="25" type="curve" smooth="yes"/>
      <point x="519" y="327" type="line" smooth="yes"/>
      <point x="557" y="505"/>
      <point x="474" y="571"/>
      <point x="294" y="571" type="curve" smooth="yes"/>
      <point x="136" y="571" type="line"/>
      <point x="122" y="571"/>
      <point x="109" y="560"/>
      <point x="106" y="546" type="curve" smooth="yes"/>
      <point x="88" y="460" type="line" smooth="yes"/>
      <point x="85" y="446"/>
      <point x="93" y="435"/>
      <point x="108" y="435" type="curve" smooth="yes"/>
      <point x="260" y="435" type="line" smooth="yes"/>
      <point x="337" y="435"/>
      <point x="364" y="395"/>
      <point x="348" y="321" type="curve" smooth="yes"/>
      <point x="286" y="25" type="line" smooth="yes"/>
      <point x="282" y="10"/>
      <point x="291" y="0"/>
      <point x="306" y="0" type="curve" smooth="yes"/>
    </contour>
    <contour>
      <point x="360" y="0" type="move" name="bottom"/>
    </contour>
    <contour>
      <point x="351" y="520" type="move" name="top"/>
    </contour>
    <contour>
      <point x="-3" y="0" type="move" name="bottomleft"/>
    </contour>
    <contour>
      <point x="108" y="520" type="move" name="topleft"/>
    </contour>
    <contour>
      <point x="208" y="260" type="move" name="center"/>
    </contour>
  </outline>
</glyph>
<glyph name="tavhebrew" format="1">
  <advance width="714"/>
  <unicode hex="05EA"/>
  <outline>
    <contour>
      <point x="420" y="435" type="line" smooth="yes"/>
      <point x="498" y="435"/>
      <point x="525" y="395"/>
      <point x="509" y="321" type="curve" smooth="yes"/>
      <point x="447" y="25" type="line" smooth="yes"/>
      <point x="443" y="10"/>
      <point x="452" y="0"/>
      <point x="466" y="0" type="curve" smooth="yes"/>
      <point x="585" y="0" type="line" smooth="yes"/>
      <point x="599" y="0"/>
      <point x="613" y="11"/>
      <point x="616" y="25" type="curve" smooth="yes"/>
      <point x="679" y="326" type="line" smooth="yes"/>
      <point x="715" y="497"/>
      <point x="635" y="571"/>
      <point x="455" y="571" type="curve" smooth="yes"/>
      <point x="155" y="571" type="line" smooth="yes"/>
      <point x="141" y="571"/>
      <point x="128" y="560"/>
      <point x="125" y="546" type="curve" smooth="yes"/>
      <point x="107" y="460" type="line" smooth="yes"/>
      <point x="104" y="446"/>
      <point x="112" y="435"/>
      <point x="127" y="435" type="curve" smooth="yes"/>
    </contour>
    <contour>
      <point x="217" y="506"/>
      <point x="198" y="490"/>
      <point x="188" y="472" type="curve" smooth="yes"/>
      <point x="152" y="414"/>
      <point x="130" y="351"/>
      <point x="116" y="287" type="curve" smooth="yes"/>
      <point x="106" y="241"/>
      <point x="103" y="197"/>
      <point x="116" y="130" type="curve"/>
      <point x="51" y="130" type="line" smooth="yes"/>
      <point x="37" y="130"/>
      <point x="24" y="119"/>
      <point x="20" y="105" type="curve" smooth="yes"/>
      <point x="4" y="26" type="line" smooth="yes"/>
      <point x="1" y="12"/>
      <point x="9" y="1"/>
      <point x="24" y="1" type="curve" smooth="yes"/>
      <point x="235" y="0" type="line" smooth="yes"/>
      <point x="250" y="0"/>
      <point x="263" y="11"/>
      <point x="266" y="25" type="curve"/>
      <point x="277" y="90" type="line"/>
      <point x="260" y="147"/>
      <point x="259" y="221"/>
      <point x="273" y="288" type="curve" smooth="yes"/>
      <point x="285" y="344"/>
      <point x="312" y="419"/>
      <point x="353" y="472" type="curve" smooth="yes"/>
      <point x="364" y="487"/>
      <point x="355" y="506"/>
      <point x="316" y="506" type="curve"/>
      <point x="255" y="506" type="line"/>
    </contour>
    <contour>
      <point x="338" y="0" type="move" name="bottom"/>
    </contour>
    <contour>
      <point x="431" y="520" type="move" name="top"/>
    </contour>
    <contour>
      <point x="-30" y="0" type="move" name="bottomleft"/>
    </contour>
    <contour>
      <point x="81" y="520" type="move" name="topleft"/>
    </contour>
    <contour>
      <point x="389" y="260" type="move" name="center"/>
    </contour>
  </outline>
</glyph>
<glyph name="gereshhebrew" format="1">
  <advance width="268"/>
  <unicode hex="05F3"/>
  <outline>
    <contour>
      <point x="155" y="343" type="line" smooth="yes"/>
      <point x="177" y="343"/>
      <point x="190" y="358"/>
      <point x="199" y="371" type="curve" smooth="yes"/>
      <point x="319" y="570" type="line" smooth="yes"/>
      <point x="321" y="575"/>
      <point x="322" y="578"/>
      <point x="323" y="581" type="curve" smooth="yes"/>
      <point x="325" y="592"/>
      <point x="319" y="601"/>
      <point x="308" y="601" type="curve" smooth="yes"/>
      <point x="186" y="601" type="line" smooth="yes"/>
      <point x="163" y="601"/>
      <point x="147" y="583"/>
      <point x="141" y="566" type="curve"/>
      <point x="68" y="365" type="line"/>
      <point x="64" y="353"/>
      <point x="70" y="343"/>
      <point x="82" y="343" type="curve" smooth="yes"/>
    </contour>
  </outline>
</glyph>
<glyph name="sheqel" format="1">
  <advance width="996"/>
  <unicode hex="20AA"/>
  <outline>
    <contour>
      <point x="535" y="200" type="curve" name="hr00"/>
      <point x="661" y="200" type="line" smooth="yes"/>
      <point x="676" y="200"/>
      <point x="691" y="212"/>
      <point x="694" y="227" type="curve" smooth="yes"/>
      <point x="715" y="327" type="line" smooth="yes"/>
      <point x="749" y="489"/>
      <point x="654" y="571"/>
      <point x="488" y="571" type="curve" smooth="yes"/>
      <point x="147" y="571" type="line" smooth="yes"/>
      <point x="132" y="571"/>
      <point x="117" y="559"/>
      <point x="114" y="544" type="curve" smooth="yes"/>
      <point x="4" y="27" type="line" smooth="yes"/>
      <point x="1" y="12"/>
      <point x="11" y="0"/>
      <point x="26" y="0" type="curve" smooth="yes"/>
      <point x="152" y="0" type="line" smooth="yes"/>
      <point x="167" y="0"/>
      <point x="181" y="12"/>
      <point x="184" y="27" type="curve" smooth="yes"/>
      <point x="267" y="416" type="line"/>
      <point x="460" y="416" type="line" smooth="yes"/>
      <point x="525" y="416"/>
      <point x="547" y="382"/>
      <point x="533" y="317" type="curve" smooth="yes"/>
      <point x="514" y="227" type="line" smooth="yes"/>
      <point x="511" y="212"/>
      <point x="520" y="200"/>
    </contour>
    <contour>
      <point x="846" y="571" type="line"/>
      <point x="831" y="571"/>
      <point x="816" y="559"/>
      <point x="813" y="544" type="curve" smooth="yes"/>
      <point x="751" y="254" type="line" smooth="yes"/>
      <point x="738" y="189"/>
      <point x="701" y="155"/>
      <point x="636" y="155" type="curve" smooth="yes"/>
      <point x="443" y="155" type="line"/>
      <point x="484" y="344" type="line" smooth="yes"/>
      <point x="487" y="359"/>
      <point x="477" y="371"/>
      <point x="462" y="371" type="curve" smooth="yes"/>
      <point x="336" y="371" type="line" smooth="yes"/>
      <point x="321" y="371"/>
      <point x="307" y="359"/>
      <point x="304" y="344" type="curve" smooth="yes"/>
      <point x="236" y="27" type="line" smooth="yes"/>
      <point x="233" y="12"/>
      <point x="243" y="0"/>
      <point x="258" y="0" type="curve" smooth="yes"/>
      <point x="619" y="0" type="line" smooth="yes"/>
      <point x="815" y="0"/>
      <point x="895" y="82"/>
      <point x="929" y="244" type="curve" smooth="yes"/>
      <point x="993" y="544" type="line" smooth="yes"/>
      <point x="996" y="559"/>
      <point x="987" y="571"/>
      <point x="972" y="571" type="curve" smooth="yes"/>
    </contour>
  </outline>
</glyph>
<glyph name="twothirds" format="1">
  <advance width="858"/>
  <unicode hex="2154"/>
  <outline>
    <contour>
      <point x="823" y="669" type="line" smooth="yes"/>
      <point x="836" y="682"/>
      <point x="829" y="700"/>
      <point x="809" y="700" type="curve" smooth="yes"/>
      <point x="735" y="700" type="line" smooth="yes"/>
      <point x="716" y="700"/>
      <point x="707" y="693"/>
      <point x="695" y="681" type="curve" smooth="yes"/>
      <point x="63" y="31" type="line" smooth="yes"/>
      <point x="50" y="18"/>
      <point x="57" y="0"/>
      <point x="77" y="0" type="curve" smooth="yes"/>
      <point x="151" y="0" type="line" smooth="yes"/>
      <point x="170" y="0"/>
      <point x="179" y="7"/>
      <point x="191" y="19" type="curve" smooth="yes"/>
    </contour>
    <contour>
      <point x="813" y="320" type="line" smooth="yes"/>
      <point x="816" y="333"/>
      <point x="809" y="342"/>
      <point x="796" y="342" type="curve" smooth="yes"/>
      <point x="571" y="342" type="line" smooth="yes"/>
      <point x="558" y="342"/>
      <point x="547" y="333"/>
      <point x="544" y="320" type="curve" smooth="yes"/>
      <point x="533" y="269" type="line" smooth="yes"/>
      <point x="530" y="256"/>
      <point x="538" y="247"/>
      <point x="551" y="247" type="curve" smooth="yes"/>
      <point x="653" y="247" type="line"/>
      <point x="589" y="199" type="line"/>
      <point x="581" y="192"/>
      <point x="576" y="186"/>
      <point x="574" y="177" type="curve" smooth="yes"/>
      <point x="569" y="154" type="line" smooth="yes"/>
      <point x="566" y="141"/>
      <point x="573" y="132"/>
      <point x="586" y="132" type="curve" smooth="yes"/>
      <point x="641" y="132" type="line" smooth="yes"/>
      <point x="659" y="132"/>
      <point x="674" y="125"/>
      <point x="670" y="107" type="curve" smooth="yes"/>
      <point x="665" y="85"/>
      <point x="648" y="82"/>
      <point x="630" y="82" type="curve" smooth="yes"/>
      <point x="600" y="82"/>
      <point x="603" y="100"/>
      <point x="578" y="100" type="curve" smooth="yes"/>
      <point x="493" y="100" type="line" smooth="yes"/>
      <point x="487" y="100"/>
      <point x="474" y="94"/>
      <point x="472" y="81" type="curve" smooth="yes"/>
      <point x="467" y="41"/>
      <point x="532" y="-13"/>
      <point x="620" y="-13" type="curve" smooth="yes"/>
      <point x="716" y="-13"/>
      <point x="767" y="34"/>
      <point x="785" y="102" type="curve" smooth="yes"/>
      <point x="797" y="148"/>
      <point x="775" y="184"/>
      <point x="731" y="206" type="curve"/>
      <point x="784" y="249" type="line" smooth="yes"/>
      <point x="796" y="259"/>
      <point x="801" y="263"/>
      <point x="804" y="276" type="curve" smooth="yes"/>
    </contour>
    <contour>
      <point x="43" y="370" type="line" smooth="yes"/>
      <point x="40" y="357"/>
      <point x="47" y="350"/>
      <point x="60" y="350" type="curve" smooth="yes"/>
      <point x="314" y="350" type="line" smooth="yes"/>
      <point x="327" y="350"/>
      <point x="338" y="359"/>
      <point x="341" y="372" type="curve" smooth="yes"/>
      <point x="352" y="423" type="line" smooth="yes"/>
      <point x="355" y="436"/>
      <point x="348" y="445"/>
      <point x="335" y="445" type="curve" smooth="yes"/>
      <point x="254" y="445" type="line"/>
      <point x="340" y="501"/>
      <point x="367" y="528"/>
      <point x="380" y="588" type="curve" smooth="yes"/>
      <point x="394" y="656"/>
      <point x="335" y="705"/>
      <point x="254" y="705" type="curve" smooth="yes"/>
      <point x="166" y="705"/>
      <point x="117" y="654"/>
      <point x="100" y="593" type="curve" smooth="yes"/>
      <point x="96" y="581"/>
      <point x="102" y="574"/>
      <point x="114" y="574" type="curve" smooth="yes"/>
      <point x="185" y="574" type="line" smooth="yes"/>
      <point x="195" y="574"/>
      <point x="205" y="577"/>
      <point x="216" y="592" type="curve" smooth="yes"/>
      <point x="224" y="603"/>
      <point x="234" y="610"/>
      <point x="244" y="610" type="curve" smooth="yes"/>
      <point x="255" y="610"/>
      <point x="267" y="602"/>
      <point x="263" y="583" type="curve" smooth="yes"/>
      <point x="256" y="552"/>
      <point x="222" y="536"/>
      <point x="84" y="447" type="curve" smooth="yes"/>
      <point x="61" y="432"/>
      <point x="54" y="425"/>
      <point x="52" y="415" type="curve" smooth="yes"/>
    </contour>
  </outline>
</glyph>
<glyph name="seveneighths" format="1">
  <advance width="763"/>
  <unicode hex="215E"/>
  <outline>
    <contour>
      <point x="746" y="669" type="line" smooth="yes"/>
      <point x="759" y="682"/>
      <point x="752" y="700"/>
      <point x="732" y="700" type="curve" smooth="yes"/>
      <point x="658" y="700" type="line" smooth="yes"/>
      <point x="639" y="700"/>
      <point x="630" y="693"/>
      <point x="618" y="681" type="curve" smooth="yes"/>
      <point x="-14" y="31" type="line" smooth="yes"/>
      <point x="-27" y="18"/>
      <point x="-20" y="0"/>
      <point x="0" y="0" type="curve" smooth="yes"/>
      <point x="74" y="0" type="line" smooth="yes"/>
      <point x="93" y="0"/>
      <point x="102" y="7"/>
      <point x="114" y="19" type="curve" smooth="yes"/>
    </contour>
    <contour>
      <point x="693" y="95" type="curve" smooth="yes"/>
      <point x="701" y="130"/>
      <point x="691" y="159"/>
      <point x="666" y="173" type="curve"/>
      <point x="690" y="187"/>
      <point x="706" y="211"/>
      <point x="712" y="241" type="curve" smooth="yes"/>
      <point x="723" y="291"/>
      <point x="689" y="350"/>
      <point x="589" y="350" type="curve" smooth="yes"/>
      <point x="479" y="350"/>
      <point x="441" y="297"/>
      <point x="430" y="247" type="curve" smooth="yes"/>
      <point x="424" y="217"/>
      <point x="430" y="193"/>
      <point x="448" y="179" type="curve"/>
      <point x="417" y="165"/>
      <point x="395" y="136"/>
      <point x="387" y="101" type="curve" smooth="yes"/>
      <point x="376" y="47"/>
      <point x="419" y="-10"/>
      <point x="522" y="-10" type="curve" smooth="yes"/>
      <point x="635" y="-10"/>
      <point x="682" y="41"/>
    </contour>
    <contour>
      <point x="586" y="102" type="curve" smooth="yes"/>
      <point x="581" y="80"/>
      <point x="558" y="70"/>
      <point x="534" y="70" type="curve" smooth="yes"/>
      <point x="510" y="70"/>
      <point x="491" y="80"/>
      <point x="496" y="102" type="curve" smooth="yes"/>
      <point x="501" y="123"/>
      <point x="522" y="134"/>
      <point x="548" y="134" type="curve" smooth="yes"/>
      <point x="574" y="134"/>
      <point x="591" y="123"/>
    </contour>
    <contour>
      <point x="607" y="241" type="curve" smooth="yes"/>
      <point x="603" y="222"/>
      <point x="584" y="212"/>
      <point x="564" y="212" type="curve" smooth="yes"/>
      <point x="546" y="212"/>
      <point x="530" y="222"/>
      <point x="534" y="241" type="curve" smooth="yes"/>
      <point x="537" y="259"/>
      <point x="557" y="270"/>
      <point x="577" y="270" type="curve" smooth="yes"/>
      <point x="597" y="270"/>
      <point x="610" y="259"/>
    </contour>
    <contour>
      <point x="380" y="678" type="line" smooth="yes"/>
      <point x="383" y="691"/>
      <point x="376" y="700"/>
      <point x="363" y="700" type="curve"/>
      <point x="128" y="700" type="line"/>
      <point x="115" y="700"/>
      <point x="104" y="691"/>
      <point x="101" y="678" type="curve"/>
      <point x="90" y="627" type="line" smooth="yes"/>
      <point x="87" y="614"/>
      <point x="95" y="605"/>
      <point x="108" y="605" type="curve" smooth="yes"/>
      <point x="236" y="605" type="line"/>
      <point x="86" y="380" type="line" smooth="yes"/>
      <point x="77" y="366"/>
      <point x="81" y="350"/>
      <point x="98" y="350" type="curve"/>
      <point x="177" y="350" type="line" smooth="yes"/>
      <point x="191" y="350"/>
      <point x="200" y="362"/>
      <point x="208" y="374" type="curve" smooth="yes"/>
      <point x="359" y="600" type="line" smooth="yes"/>
      <point x="364" y="608"/>
      <point x="366" y="614"/>
      <point x="368" y="623" type="curve" smooth="yes"/>
    </contour>
  </outline>
</glyph>
